<svg width="14" height="14" viewBox="0 0 14 14" fill="none" xmlns="http://www.w3.org/2000/svg">
<path d="M8.30183 4.94629L7.0935 1.22744C6.94383 0.766786 6.29212 0.766784 6.14245 1.22744L4.93412 4.94629C4.86718 5.1523 4.6752 5.29178 4.45859 5.29178H0.548363C0.0640017 5.29178 -0.137388 5.91159 0.254469 6.19629L3.41791 8.49466C3.59315 8.62198 3.66648 8.84767 3.59955 9.05368L2.39122 12.7725C2.24154 13.2332 2.76878 13.6162 3.16064 13.3315L6.32408 11.0332C6.49932 10.9058 6.73662 10.9058 6.91187 11.0332L10.0753 13.3315C10.4672 13.6162 10.9944 13.2332 10.8447 12.7725L9.6364 9.05368C9.56946 8.84767 9.64279 8.62198 9.81804 8.49466L12.9815 6.19629C13.3733 5.91159 13.1719 5.29178 12.6876 5.29178H8.77736C8.56074 5.29178 8.36877 5.1523 8.30183 4.94629Z" fill="#F2CF63"/>
</svg>
